STARTFONT 2.1
FONT -Monotype-Century Gothic-Regular-I-Normal--10-100-75-75-P-51-iso8859-4
SIZE 10 75 75
FONTBOUNDINGBOX 14 13 -2 -3

STARTPROPERTIES 24
FOUNDRY "Monotype"
FAMILY_NAME "Century Gothic"
WEIGHT_NAME "Regular"
SLANT "I"
SETWIDTH_NAME "Normal"
ADD_STYLE_NAME ""
PIXEL_SIZE 10
POINT_SIZE 100
RESOLUTION_X 75
RESOLUTION_Y 75
SPACING "P"
AVERAGE_WIDTH 51
CHARSET_REGISTRY "iso8859"
CHARSET_ENCODING "4"
FACE_NAME "Century Gothic it ISO Latin4"
_DEC_DEVICE_FONTNAMES "PS=centurygothic-italic-lat4"
COPYRIGHT "Copyright (c) 1994 Monotype Typography Ltd."
CAP_HEIGHT 9
X_HEIGHT 6
WEIGHT 10
QUAD_WIDTH 6
DEFAULT_CHAR 160
FONT_DESCENT 3
FONT_ASCENT 10
ENDPROPERTIES

CHARS 191

STARTCHAR space
ENCODING 32
SWIDTH 277 0
DWIDTH 3 0
BBX 0 0 0 0
BITMAP
ENDCHAR

STARTCHAR exclam
ENCODING 33
SWIDTH 295 0
DWIDTH 3 0
BBX 2 7 1 0
BITMAP
40
40
40
80
80
00
80
ENDCHAR

STARTCHAR quotedbl
ENCODING 34
SWIDTH 309 0
DWIDTH 3 0
BBX 3 3 0 4
BITMAP
A0
A0
A0
ENDCHAR

STARTCHAR numbersign
ENCODING 35
SWIDTH 720 0
DWIDTH 7 0
BBX 5 8 1 0
BITMAP
28
28
F8
50
F8
A0
A0
A0
ENDCHAR

STARTCHAR dollar
ENCODING 36
SWIDTH 554 0
DWIDTH 6 0
BBX 6 9 0 -1
BITMAP
10
38
54
50
30
28
A8
70
20
ENDCHAR

STARTCHAR percent
ENCODING 37
SWIDTH 775 0
DWIDTH 8 0
BBX 8 8 0 0
BITMAP
77
9A
94
68
17
29
49
86
ENDCHAR

STARTCHAR ampersand
ENCODING 38
SWIDTH 757 0
DWIDTH 8 0
BBX 6 7 1 0
BITMAP
18
28
10
60
94
88
74
ENDCHAR

STARTCHAR quoteright
ENCODING 39
SWIDTH 351 0
DWIDTH 4 0
BBX 2 3 1 4
BITMAP
40
40
80
ENDCHAR

STARTCHAR parenleft
ENCODING 40
SWIDTH 369 0
DWIDTH 4 0
BBX 3 10 1 -2
BITMAP
20
20
40
40
80
80
80
80
40
40
ENDCHAR

STARTCHAR parenright
ENCODING 41
SWIDTH 369 0
DWIDTH 4 0
BBX 3 10 1 -2
BITMAP
40
40
20
20
20
20
40
40
80
80
ENDCHAR

STARTCHAR asterisk
ENCODING 42
SWIDTH 425 0
DWIDTH 4 0
BBX 4 4 0 3
BITMAP
40
70
E0
20
ENDCHAR

STARTCHAR plus
ENCODING 43
SWIDTH 606 0
DWIDTH 6 0
BBX 5 5 1 1
BITMAP
20
20
F8
20
20
ENDCHAR

STARTCHAR comma
ENCODING 44
SWIDTH 277 0
DWIDTH 3 0
BBX 2 3 1 -1
BITMAP
40
40
80
ENDCHAR

STARTCHAR minus
ENCODING 45
SWIDTH 606 0
DWIDTH 6 0
BBX 5 1 1 3
BITMAP
F8
ENDCHAR

STARTCHAR period
ENCODING 46
SWIDTH 277 0
DWIDTH 3 0
BBX 1 1 1 0
BITMAP
80
ENDCHAR

STARTCHAR slash
ENCODING 47
SWIDTH 437 0
DWIDTH 4 0
BBX 4 9 0 -2
BITMAP
10
10
20
20
20
40
40
80
80
ENDCHAR

STARTCHAR zero
ENCODING 48
SWIDTH 554 0
DWIDTH 6 0
BBX 5 7 1 0
BITMAP
30
48
88
88
88
90
60
ENDCHAR

STARTCHAR one
ENCODING 49
SWIDTH 554 0
DWIDTH 6 0
BBX 2 7 2 0
BITMAP
C0
40
40
40
80
80
80
ENDCHAR

STARTCHAR two
ENCODING 50
SWIDTH 554 0
DWIDTH 6 0
BBX 5 7 1 0
BITMAP
30
48
08
10
20
40
F0
ENDCHAR

STARTCHAR three
ENCODING 51
SWIDTH 554 0
DWIDTH 6 0
BBX 6 7 0 0
BITMAP
18
24
04
38
08
88
70
ENDCHAR

STARTCHAR four
ENCODING 52
SWIDTH 554 0
DWIDTH 6 0
BBX 5 7 1 0
BITMAP
08
38
48
90
F8
10
10
ENDCHAR

STARTCHAR five
ENCODING 53
SWIDTH 554 0
DWIDTH 6 0
BBX 5 7 1 0
BITMAP
38
20
70
08
08
88
70
ENDCHAR

STARTCHAR six
ENCODING 54
SWIDTH 554 0
DWIDTH 6 0
BBX 5 7 1 0
BITMAP
08
10
20
70
88
88
70
ENDCHAR

STARTCHAR seven
ENCODING 55
SWIDTH 554 0
DWIDTH 6 0
BBX 5 7 1 0
BITMAP
78
08
10
20
20
40
80
ENDCHAR

STARTCHAR eight
ENCODING 56
SWIDTH 554 0
DWIDTH 6 0
BBX 5 7 1 0
BITMAP
30
48
48
70
88
88
70
ENDCHAR

STARTCHAR nine
ENCODING 57
SWIDTH 554 0
DWIDTH 6 0
BBX 5 7 1 0
BITMAP
70
88
88
70
20
40
80
ENDCHAR

STARTCHAR colon
ENCODING 58
SWIDTH 277 0
DWIDTH 3 0
BBX 2 5 1 0
BITMAP
40
00
00
00
80
ENDCHAR

STARTCHAR semicolon
ENCODING 59
SWIDTH 277 0
DWIDTH 3 0
BBX 3 6 0 -1
BITMAP
20
00
00
40
40
80
ENDCHAR

STARTCHAR less
ENCODING 60
SWIDTH 606 0
DWIDTH 6 0
BBX 5 5 1 1
BITMAP
18
60
80
40
30
ENDCHAR

STARTCHAR equal
ENCODING 61
SWIDTH 606 0
DWIDTH 6 0
BBX 5 3 1 2
BITMAP
F8
00
F8
ENDCHAR

STARTCHAR greater
ENCODING 62
SWIDTH 606 0
DWIDTH 6 0
BBX 5 5 1 1
BITMAP
60
10
08
30
C0
ENDCHAR

STARTCHAR question
ENCODING 63
SWIDTH 591 0
DWIDTH 6 0
BBX 5 7 1 0
BITMAP
30
48
08
70
80
60
40
ENDCHAR

STARTCHAR at
ENCODING 64
SWIDTH 867 0
DWIDTH 9 0
BBX 8 8 1 0
BITMAP
3C
42
9D
A5
A5
9F
40
3C
ENDCHAR

STARTCHAR A
ENCODING 65
SWIDTH 740 0
DWIDTH 7 0
BBX 7 7 0 0
BITMAP
08
08
14
24
3C
42
82
ENDCHAR

STARTCHAR B
ENCODING 66
SWIDTH 574 0
DWIDTH 6 0
BBX 5 7 1 0
BITMAP
70
48
48
70
88
88
F0
ENDCHAR

STARTCHAR C
ENCODING 67
SWIDTH 813 0
DWIDTH 8 0
BBX 7 7 1 0
BITMAP
3C
42
40
80
80
84
78
ENDCHAR

STARTCHAR D
ENCODING 68
SWIDTH 744 0
DWIDTH 7 0
BBX 6 7 1 0
BITMAP
70
48
44
44
84
88
F0
ENDCHAR

STARTCHAR E
ENCODING 69
SWIDTH 536 0
DWIDTH 5 0
BBX 5 7 1 0
BITMAP
78
40
40
70
80
80
F0
ENDCHAR

STARTCHAR F
ENCODING 70
SWIDTH 485 0
DWIDTH 5 0
BBX 5 7 1 0
BITMAP
78
40
40
70
80
80
80
ENDCHAR

STARTCHAR G
ENCODING 71
SWIDTH 872 0
DWIDTH 9 0
BBX 8 7 1 0
BITMAP
3E
41
40
8F
81
82
7C
ENDCHAR

STARTCHAR H
ENCODING 72
SWIDTH 683 0
DWIDTH 7 0
BBX 6 7 1 0
BITMAP
44
44
44
7C
88
88
88
ENDCHAR

STARTCHAR I
ENCODING 73
SWIDTH 226 0
DWIDTH 3 0
BBX 2 7 1 0
BITMAP
40
40
40
40
80
80
80
ENDCHAR

STARTCHAR J
ENCODING 74
SWIDTH 482 0
DWIDTH 5 0
BBX 5 7 0 0
BITMAP
08
08
08
08
10
90
60
ENDCHAR

STARTCHAR K
ENCODING 75
SWIDTH 591 0
DWIDTH 6 0
BBX 6 7 1 0
BITMAP
44
48
50
60
A0
90
88
ENDCHAR

STARTCHAR L
ENCODING 76
SWIDTH 462 0
DWIDTH 5 0
BBX 4 7 1 0
BITMAP
40
40
40
40
80
80
F0
ENDCHAR

STARTCHAR M
ENCODING 77
SWIDTH 919 0
DWIDTH 9 0
BBX 8 7 1 0
BITMAP
21
21
23
55
55
89
89
ENDCHAR

STARTCHAR N
ENCODING 78
SWIDTH 740 0
DWIDTH 7 0
BBX 6 7 1 0
BITMAP
44
44
64
54
98
88
88
ENDCHAR

STARTCHAR O
ENCODING 79
SWIDTH 869 0
DWIDTH 9 0
BBX 8 7 1 0
BITMAP
3E
41
41
81
82
82
7C
ENDCHAR

STARTCHAR P
ENCODING 80
SWIDTH 592 0
DWIDTH 6 0
BBX 5 7 1 0
BITMAP
70
48
48
70
80
80
80
ENDCHAR

STARTCHAR Q
ENCODING 81
SWIDTH 871 0
DWIDTH 9 0
BBX 8 7 1 0
BITMAP
3E
41
41
81
8A
86
79
ENDCHAR

STARTCHAR R
ENCODING 82
SWIDTH 607 0
DWIDTH 6 0
BBX 5 7 1 0
BITMAP
70
48
48
70
A0
90
88
ENDCHAR

STARTCHAR S
ENCODING 83
SWIDTH 498 0
DWIDTH 5 0
BBX 5 7 1 0
BITMAP
30
48
40
20
10
90
60
ENDCHAR

STARTCHAR T
ENCODING 84
SWIDTH 426 0
DWIDTH 4 0
BBX 5 7 0 0
BITMAP
F8
20
20
20
40
40
40
ENDCHAR

STARTCHAR U
ENCODING 85
SWIDTH 655 0
DWIDTH 7 0
BBX 6 7 1 0
BITMAP
44
44
44
44
88
88
70
ENDCHAR

STARTCHAR V
ENCODING 86
SWIDTH 702 0
DWIDTH 6 0
BBX 6 7 1 0
BITMAP
84
84
48
48
50
20
20
ENDCHAR

STARTCHAR W
ENCODING 87
SWIDTH 960 0
DWIDTH 9 0
BBX 9 7 1 0
BITMAP
8880
8880
9900
AA00
AA00
4400
4400
ENDCHAR

STARTCHAR X
ENCODING 88
SWIDTH 609 0
DWIDTH 6 0
BBX 6 7 1 0
BITMAP
44
44
28
30
50
88
88
ENDCHAR

STARTCHAR Y
ENCODING 89
SWIDTH 592 0
DWIDTH 6 0
BBX 5 7 2 0
BITMAP
88
88
50
20
40
40
40
ENDCHAR

STARTCHAR Z
ENCODING 90
SWIDTH 480 0
DWIDTH 5 0
BBX 5 7 1 0
BITMAP
78
10
10
20
40
40
F0
ENDCHAR

STARTCHAR bracketleft
ENCODING 91
SWIDTH 351 0
DWIDTH 4 0
BBX 3 9 1 -2
BITMAP
60
40
40
40
80
80
80
80
C0
ENDCHAR

STARTCHAR backslash
ENCODING 92
SWIDTH 605 0
DWIDTH 6 0
BBX 5 8 1 -1
BITMAP
80
80
40
20
20
10
08
08
ENDCHAR

STARTCHAR bracketright
ENCODING 93
SWIDTH 351 0
DWIDTH 4 0
BBX 3 9 1 -2
BITMAP
60
20
20
20
40
40
40
40
C0
ENDCHAR

STARTCHAR asciicircum
ENCODING 94
SWIDTH 672 0
DWIDTH 7 0
BBX 5 6 1 1
BITMAP
20
20
50
50
88
88
ENDCHAR

STARTCHAR underscore
ENCODING 95
SWIDTH 500 0
DWIDTH 5 0
BBX 5 1 0 -2
BITMAP
F8
ENDCHAR

STARTCHAR quoteleft
ENCODING 96
SWIDTH 351 0
DWIDTH 4 0
BBX 2 3 1 4
BITMAP
40
80
80
ENDCHAR

STARTCHAR a
ENCODING 97
SWIDTH 683 0
DWIDTH 7 0
BBX 6 5 1 0
BITMAP
34
4C
84
98
68
ENDCHAR

STARTCHAR b
ENCODING 98
SWIDTH 682 0
DWIDTH 7 0
BBX 6 7 1 0
BITMAP
40
40
58
64
84
C8
B0
ENDCHAR

STARTCHAR c
ENCODING 99
SWIDTH 647 0
DWIDTH 6 0
BBX 5 5 1 0
BITMAP
30
48
80
90
60
ENDCHAR

STARTCHAR d
ENCODING 100
SWIDTH 685 0
DWIDTH 7 0
BBX 6 7 1 0
BITMAP
04
04
34
48
88
98
68
ENDCHAR

STARTCHAR e
ENCODING 101
SWIDTH 650 0
DWIDTH 6 0
BBX 6 5 1 0
BITMAP
38
44
F8
80
70
ENDCHAR

STARTCHAR f
ENCODING 102
SWIDTH 314 0
DWIDTH 3 0
BBX 3 7 1 0
BITMAP
20
40
E0
40
80
80
80
ENDCHAR

STARTCHAR g
ENCODING 103
SWIDTH 673 0
DWIDTH 7 0
BBX 6 7 1 -2
BITMAP
34
4C
84
98
68
88
70
ENDCHAR

STARTCHAR h
ENCODING 104
SWIDTH 610 0
DWIDTH 6 0
BBX 5 7 1 0
BITMAP
40
40
70
48
88
90
90
ENDCHAR

STARTCHAR i
ENCODING 105
SWIDTH 200 0
DWIDTH 3 0
BBX 2 7 1 0
BITMAP
40
00
40
40
40
80
80
ENDCHAR

STARTCHAR j
ENCODING 106
SWIDTH 203 0
DWIDTH 3 0
BBX 3 9 0 -2
BITMAP
20
00
20
20
20
40
40
40
80
ENDCHAR

STARTCHAR k
ENCODING 107
SWIDTH 502 0
DWIDTH 5 0
BBX 5 7 1 0
BITMAP
40
40
48
50
A0
90
88
ENDCHAR

STARTCHAR l
ENCODING 108
SWIDTH 200 0
DWIDTH 3 0
BBX 2 7 1 0
BITMAP
40
40
40
40
80
80
80
ENDCHAR

STARTCHAR m
ENCODING 109
SWIDTH 938 0
DWIDTH 9 0
BBX 8 5 1 0
BITMAP
76
49
49
92
92
ENDCHAR

STARTCHAR n
ENCODING 110
SWIDTH 610 0
DWIDTH 6 0
BBX 5 5 1 0
BITMAP
70
48
48
90
90
ENDCHAR

STARTCHAR o
ENCODING 111
SWIDTH 655 0
DWIDTH 7 0
BBX 6 5 1 0
BITMAP
38
44
84
88
70
ENDCHAR

STARTCHAR p
ENCODING 112
SWIDTH 682 0
DWIDTH 7 0
BBX 6 7 1 -2
BITMAP
58
64
44
48
B0
80
80
ENDCHAR

STARTCHAR q
ENCODING 113
SWIDTH 682 0
DWIDTH 7 0
BBX 6 7 1 -2
BITMAP
34
4C
84
98
68
08
08
ENDCHAR

STARTCHAR r
ENCODING 114
SWIDTH 301 0
DWIDTH 4 0
BBX 4 5 1 0
BITMAP
50
60
40
80
80
ENDCHAR

STARTCHAR s
ENCODING 115
SWIDTH 388 0
DWIDTH 4 0
BBX 5 5 0 0
BITMAP
38
40
20
10
E0
ENDCHAR

STARTCHAR t
ENCODING 116
SWIDTH 339 0
DWIDTH 3 0
BBX 4 7 0 0
BITMAP
20
20
F0
40
40
40
40
ENDCHAR

STARTCHAR u
ENCODING 117
SWIDTH 608 0
DWIDTH 6 0
BBX 5 5 1 0
BITMAP
48
48
90
90
60
ENDCHAR

STARTCHAR v
ENCODING 118
SWIDTH 554 0
DWIDTH 5 0
BBX 5 5 1 0
BITMAP
88
88
50
60
40
ENDCHAR

STARTCHAR w
ENCODING 119
SWIDTH 831 0
DWIDTH 7 0
BBX 7 5 1 0
BITMAP
92
92
B4
C8
88
ENDCHAR

STARTCHAR x
ENCODING 120
SWIDTH 480 0
DWIDTH 4 0
BBX 5 5 0 0
BITMAP
48
50
20
50
90
ENDCHAR

STARTCHAR y
ENCODING 121
SWIDTH 536 0
DWIDTH 4 0
BBX 5 7 0 -2
BITMAP
88
88
50
60
40
40
80
ENDCHAR

STARTCHAR z
ENCODING 122
SWIDTH 425 0
DWIDTH 4 0
BBX 5 5 0 0
BITMAP
78
10
20
40
F0
ENDCHAR

STARTCHAR braceleft
ENCODING 123
SWIDTH 351 0
DWIDTH 4 0
BBX 4 10 0 -3
BITMAP
10
20
20
40
40
80
40
40
40
20
ENDCHAR

STARTCHAR bar
ENCODING 124
SWIDTH 672 0
DWIDTH 7 0
BBX 1 9 3 -2
BITMAP
80
80
80
80
80
80
80
80
80
ENDCHAR

STARTCHAR braceright
ENCODING 125
SWIDTH 351 0
DWIDTH 4 0
BBX 4 10 0 -3
BITMAP
40
20
20
20
10
20
20
40
40
80
ENDCHAR

STARTCHAR asciitilde
ENCODING 126
SWIDTH 606 0
DWIDTH 6 0
BBX 5 2 1 3
BITMAP
68
90
ENDCHAR

STARTCHAR space
ENCODING 160
SWIDTH 277 0
DWIDTH 4 0
BBX 0 0 0 0
BITMAP
ENDCHAR

STARTCHAR Aogonek
ENCODING 161
SWIDTH 740 0
DWIDTH 7 0
BBX 9 9 0 -2
BITMAP
0800
0800
1400
2400
3C00
4200
8200
0200
0180
ENDCHAR

STARTCHAR afii240
ENCODING 162
SWIDTH 500 0
DWIDTH 5 0
BBX 5 6 1 0
BITMAP
48
50
70
A0
90
90
ENDCHAR

STARTCHAR Rcommaaccent
ENCODING 163
SWIDTH 607 0
DWIDTH 6 0
BBX 5 10 1 -3
BITMAP
70
48
48
70
A0
90
88
00
20
40
ENDCHAR

STARTCHAR currency
ENCODING 164
SWIDTH 554 0
DWIDTH 6 0
BBX 6 4 0 2
BITMAP
B4
48
48
B4
ENDCHAR

STARTCHAR Itilde
ENCODING 165
SWIDTH 226 0
DWIDTH 3 0
BBX 4 10 1 0
BITMAP
50
A0
00
40
40
40
40
80
80
80
ENDCHAR

STARTCHAR Lcommaaccent
ENCODING 166
SWIDTH 462 0
DWIDTH 5 0
BBX 4 10 1 -3
BITMAP
40
40
40
40
80
80
F0
00
40
80
ENDCHAR

STARTCHAR section
ENCODING 167
SWIDTH 615 0
DWIDTH 6 0
BBX 6 10 0 -2
BITMAP
18
24
20
30
48
48
30
10
90
60
ENDCHAR

STARTCHAR hungarumlaut
ENCODING 168
SWIDTH 552 0
DWIDTH 6 0
BBX 4 2 1 6
BITMAP
50
A0
ENDCHAR

STARTCHAR Scaron
ENCODING 169
SWIDTH 498 0
DWIDTH 5 0
BBX 5 10 1 0
BITMAP
48
30
00
30
48
40
20
10
90
60
ENDCHAR

STARTCHAR Emacron
ENCODING 170
SWIDTH 536 0
DWIDTH 5 0
BBX 5 9 1 0
BITMAP
38
00
78
40
40
70
80
80
F0
ENDCHAR

STARTCHAR Gcommaaccent
ENCODING 171
SWIDTH 872 0
DWIDTH 9 0
BBX 8 10 1 -3
BITMAP
3E
41
40
8F
81
82
7C
00
10
20
ENDCHAR

STARTCHAR afii237
ENCODING 172
SWIDTH 614 0
DWIDTH 4 0
BBX 5 7 0 0
BITMAP
F8
20
20
F0
40
40
40
ENDCHAR

STARTCHAR hyphen
ENCODING 173
SWIDTH 332 0
DWIDTH 3 0
BBX 3 1 0 2
BITMAP
E0
ENDCHAR

STARTCHAR Zcaron
ENCODING 174
SWIDTH 480 0
DWIDTH 5 0
BBX 5 10 1 0
BITMAP
28
10
00
78
10
10
20
40
40
F0
ENDCHAR

STARTCHAR macron
ENCODING 175
SWIDTH 485 0
DWIDTH 5 0
BBX 3 1 2 6
BITMAP
E0
ENDCHAR

STARTCHAR degree
ENCODING 176
SWIDTH 400 0
DWIDTH 4 0
BBX 4 4 0 3
BITMAP
60
90
90
60
ENDCHAR

STARTCHAR aogonek
ENCODING 177
SWIDTH 683 0
DWIDTH 7 0
BBX 7 7 1 -2
BITMAP
34
4C
84
98
68
08
06
ENDCHAR

STARTCHAR ogonek
ENCODING 178
SWIDTH 302 0
DWIDTH 3 0
BBX 3 2 1 -2
BITMAP
80
60
ENDCHAR

STARTCHAR rcommaaccent
ENCODING 179
SWIDTH 301 0
DWIDTH 4 0
BBX 4 8 1 -3
BITMAP
50
60
40
80
80
00
40
80
ENDCHAR

STARTCHAR acute
ENCODING 180
SWIDTH 375 0
DWIDTH 4 0
BBX 2 2 2 6
BITMAP
40
80
ENDCHAR

STARTCHAR itilde
ENCODING 181
SWIDTH 200 0
DWIDTH 3 0
BBX 4 8 1 0
BITMAP
50
A0
00
40
40
40
80
80
ENDCHAR

STARTCHAR lcommaaccent
ENCODING 182
SWIDTH 200 0
DWIDTH 3 0
BBX 3 10 0 -3
BITMAP
20
20
20
20
40
40
40
00
40
80
ENDCHAR

STARTCHAR caron
ENCODING 183
SWIDTH 502 0
DWIDTH 5 0
BBX 4 2 1 6
BITMAP
90
60
ENDCHAR

STARTCHAR commaaccent
ENCODING 184
SWIDTH 333 0
DWIDTH 3 0
BBX 2 2 0 -3
BITMAP
40
80
ENDCHAR

STARTCHAR scaron
ENCODING 185
SWIDTH 388 0
DWIDTH 4 0
BBX 5 8 0 0
BITMAP
28
10
00
38
40
20
10
E0
ENDCHAR

STARTCHAR emacron
ENCODING 186
SWIDTH 650 0
DWIDTH 6 0
BBX 6 7 1 0
BITMAP
38
00
38
44
F8
80
70
ENDCHAR

STARTCHAR gcommaaccent
ENCODING 187
SWIDTH 673 0
DWIDTH 7 0
BBX 6 10 1 -2
BITMAP
08
10
00
34
4C
84
98
68
88
70
ENDCHAR

STARTCHAR afii253
ENCODING 188
SWIDTH 280 0
DWIDTH 3 0
BBX 4 7 0 0
BITMAP
20
20
F0
40
E0
40
40
ENDCHAR

STARTCHAR afii238
ENCODING 189
SWIDTH 723 0
DWIDTH 8 0
BBX 7 7 1 0
BITMAP
5C
62
42
42
84
84
B8
ENDCHAR

STARTCHAR zcaron
ENCODING 190
SWIDTH 425 0
DWIDTH 4 0
BBX 5 8 0 0
BITMAP
48
30
00
78
10
20
40
F0
ENDCHAR

STARTCHAR afii254
ENCODING 191
SWIDTH 556 0
DWIDTH 6 0
BBX 5 7 1 -2
BITMAP
70
48
48
90
90
10
20
ENDCHAR

STARTCHAR Amacron
ENCODING 192
SWIDTH 740 0
DWIDTH 7 0
BBX 7 9 0 0
BITMAP
1C
00
08
08
14
24
3C
42
82
ENDCHAR

STARTCHAR Aacute
ENCODING 193
SWIDTH 740 0
DWIDTH 7 0
BBX 7 10 0 0
BITMAP
04
08
00
08
08
14
24
3C
42
82
ENDCHAR

STARTCHAR Acircumflex
ENCODING 194
SWIDTH 740 0
DWIDTH 7 0
BBX 7 10 0 0
BITMAP
08
14
00
08
08
14
24
3C
42
82
ENDCHAR

STARTCHAR Atilde
ENCODING 195
SWIDTH 740 0
DWIDTH 7 0
BBX 7 10 0 0
BITMAP
0A
14
00
08
08
14
24
3C
42
82
ENDCHAR

STARTCHAR Adieresis
ENCODING 196
SWIDTH 740 0
DWIDTH 7 0
BBX 7 9 0 0
BITMAP
14
00
08
08
14
24
3C
42
82
ENDCHAR

STARTCHAR Aring
ENCODING 197
SWIDTH 740 0
DWIDTH 7 0
BBX 7 10 0 0
BITMAP
08
14
08
08
08
14
24
3C
42
82
ENDCHAR

STARTCHAR AE
ENCODING 198
SWIDTH 992 0
DWIDTH 10 0
BBX 10 7 0 0
BITMAP
03C0
0600
0A00
13C0
3C00
4400
87C0
ENDCHAR

STARTCHAR Iogonek
ENCODING 199
SWIDTH 226 0
DWIDTH 3 0
BBX 3 9 1 -2
BITMAP
40
40
40
40
80
80
80
80
60
ENDCHAR

STARTCHAR Ccaron
ENCODING 200
SWIDTH 813 0
DWIDTH 8 0
BBX 7 10 1 0
BITMAP
12
0C
00
3C
42
40
80
80
84
78
ENDCHAR

STARTCHAR Eacute
ENCODING 201
SWIDTH 536 0
DWIDTH 5 0
BBX 5 10 1 0
BITMAP
08
10
00
78
40
40
70
80
80
F0
ENDCHAR

STARTCHAR Eogonek
ENCODING 202
SWIDTH 536 0
DWIDTH 5 0
BBX 5 9 1 -2
BITMAP
78
40
40
70
80
80
F0
20
18
ENDCHAR

STARTCHAR Edieresis
ENCODING 203
SWIDTH 536 0
DWIDTH 5 0
BBX 5 9 1 0
BITMAP
28
00
78
40
40
70
80
80
F0
ENDCHAR

STARTCHAR Edotaccent
ENCODING 204
SWIDTH 536 0
DWIDTH 5 0
BBX 5 9 1 0
BITMAP
10
00
78
40
40
70
80
80
F0
ENDCHAR

STARTCHAR Iacute
ENCODING 205
SWIDTH 226 0
DWIDTH 3 0
BBX 3 10 1 0
BITMAP
20
40
00
40
40
40
40
80
80
80
ENDCHAR

STARTCHAR Icircumflex
ENCODING 206
SWIDTH 226 0
DWIDTH 3 0
BBX 4 10 1 0
BITMAP
60
90
00
40
40
40
40
80
80
80
ENDCHAR

STARTCHAR Imacron
ENCODING 207
SWIDTH 226 0
DWIDTH 3 0
BBX 3 9 1 0
BITMAP
E0
00
40
40
40
40
80
80
80
ENDCHAR

STARTCHAR Eth
ENCODING 208
SWIDTH 790 0
DWIDTH 7 0
BBX 7 7 0 0
BITMAP
38
24
22
F2
42
44
78
ENDCHAR

STARTCHAR Ncommaaccent
ENCODING 209
SWIDTH 740 0
DWIDTH 7 0
BBX 6 10 1 -3
BITMAP
44
44
64
54
98
88
88
00
20
40
ENDCHAR

STARTCHAR Omacron
ENCODING 210
SWIDTH 869 0
DWIDTH 9 0
BBX 8 9 1 0
BITMAP
1F
00
3E
41
41
81
82
82
7C
ENDCHAR

STARTCHAR Kcommaaccent
ENCODING 211
SWIDTH 591 0
DWIDTH 6 0
BBX 6 10 1 -3
BITMAP
44
48
50
60
A0
90
88
00
20
40
ENDCHAR

STARTCHAR Ocircumflex
ENCODING 212
SWIDTH 869 0
DWIDTH 9 0
BBX 8 10 1 0
BITMAP
0C
12
00
3E
41
41
81
82
82
7C
ENDCHAR

STARTCHAR Otilde
ENCODING 213
SWIDTH 869 0
DWIDTH 9 0
BBX 8 10 1 0
BITMAP
0A
14
00
3E
41
41
81
82
82
7C
ENDCHAR

STARTCHAR Odieresis
ENCODING 214
SWIDTH 869 0
DWIDTH 9 0
BBX 8 9 1 0
BITMAP
09
00
3E
41
41
81
82
82
7C
ENDCHAR

STARTCHAR multiply
ENCODING 215
SWIDTH 606 0
DWIDTH 6 0
BBX 4 4 1 2
BITMAP
90
60
60
90
ENDCHAR

STARTCHAR Oslash
ENCODING 216
SWIDTH 868 0
DWIDTH 9 0
BBX 8 7 1 0
BITMAP
3F
43
45
89
92
A2
FC
ENDCHAR

STARTCHAR Uogonek
ENCODING 217
SWIDTH 655 0
DWIDTH 7 0
BBX 6 9 1 -2
BITMAP
44
44
44
44
88
88
70
20
18
ENDCHAR

STARTCHAR Uacute
ENCODING 218
SWIDTH 655 0
DWIDTH 7 0
BBX 6 10 1 0
BITMAP
08
10
00
44
44
44
44
88
88
70
ENDCHAR

STARTCHAR Ucircumflex
ENCODING 219
SWIDTH 655 0
DWIDTH 7 0
BBX 6 10 1 0
BITMAP
08
14
00
44
44
44
44
88
88
70
ENDCHAR

STARTCHAR Udieresis
ENCODING 220
SWIDTH 655 0
DWIDTH 7 0
BBX 7 9 0 0
BITMAP
12
00
44
44
44
44
88
88
70
ENDCHAR

STARTCHAR Utilde
ENCODING 221
SWIDTH 655 0
DWIDTH 7 0
BBX 6 10 1 0
BITMAP
14
28
00
44
44
44
44
88
88
70
ENDCHAR

STARTCHAR Umacron
ENCODING 222
SWIDTH 655 0
DWIDTH 7 0
BBX 6 9 1 0
BITMAP
3C
00
44
44
44
44
88
88
70
ENDCHAR

STARTCHAR germandbls
ENCODING 223
SWIDTH 554 0
DWIDTH 6 0
BBX 5 8 1 0
BITMAP
30
48
48
50
88
88
88
B0
ENDCHAR

STARTCHAR amacron
ENCODING 224
SWIDTH 683 0
DWIDTH 7 0
BBX 6 7 1 0
BITMAP
3C
00
34
4C
84
98
68
ENDCHAR

STARTCHAR aacute
ENCODING 225
SWIDTH 683 0
DWIDTH 7 0
BBX 6 8 1 0
BITMAP
08
10
00
34
4C
84
98
68
ENDCHAR

STARTCHAR acircumflex
ENCODING 226
SWIDTH 683 0
DWIDTH 7 0
BBX 6 8 1 0
BITMAP
18
24
00
34
4C
84
98
68
ENDCHAR

STARTCHAR atilde
ENCODING 227
SWIDTH 683 0
DWIDTH 7 0
BBX 6 8 1 0
BITMAP
14
28
00
34
4C
84
98
68
ENDCHAR

STARTCHAR adieresis
ENCODING 228
SWIDTH 683 0
DWIDTH 7 0
BBX 6 7 1 0
BITMAP
24
00
34
4C
84
98
68
ENDCHAR

STARTCHAR aring
ENCODING 229
SWIDTH 683 0
DWIDTH 7 0
BBX 6 8 1 0
BITMAP
10
28
10
34
4C
84
98
68
ENDCHAR

STARTCHAR ae
ENCODING 230
SWIDTH 1157 0
DWIDTH 10 0
BBX 10 5 1 0
BITMAP
3780
4C40
8780
9800
6F00
ENDCHAR

STARTCHAR iogonek
ENCODING 231
SWIDTH 200 0
DWIDTH 2 0
BBX 3 9 1 -2
BITMAP
40
00
40
40
40
80
80
80
60
ENDCHAR

STARTCHAR ccaron
ENCODING 232
SWIDTH 647 0
DWIDTH 6 0
BBX 6 8 1 0
BITMAP
24
18
00
30
48
80
90
60
ENDCHAR

STARTCHAR eacute
ENCODING 233
SWIDTH 650 0
DWIDTH 6 0
BBX 6 8 1 0
BITMAP
08
10
00
38
44
F8
80
70
ENDCHAR

STARTCHAR eogonek
ENCODING 234
SWIDTH 650 0
DWIDTH 6 0
BBX 6 7 1 -2
BITMAP
38
44
F8
80
70
20
18
ENDCHAR

STARTCHAR edieresis
ENCODING 235
SWIDTH 650 0
DWIDTH 6 0
BBX 6 7 1 0
BITMAP
28
00
38
44
F8
80
70
ENDCHAR

STARTCHAR edotaccent
ENCODING 236
SWIDTH 650 0
DWIDTH 6 0
BBX 6 7 1 0
BITMAP
10
00
38
44
F8
80
70
ENDCHAR

STARTCHAR iacute
ENCODING 237
SWIDTH 200 0
DWIDTH 3 0
BBX 3 8 1 0
BITMAP
20
40
00
40
40
40
80
80
ENDCHAR

STARTCHAR icircumflex
ENCODING 238
SWIDTH 200 0
DWIDTH 3 0
BBX 3 8 1 0
BITMAP
40
A0
00
40
40
40
80
80
ENDCHAR

STARTCHAR imacron
ENCODING 239
SWIDTH 200 0
DWIDTH 3 0
BBX 3 7 1 0
BITMAP
E0
00
40
40
40
80
80
ENDCHAR

STARTCHAR dcroat
ENCODING 240
SWIDTH 685 0
DWIDTH 7 0
BBX 7 7 1 0
BITMAP
1E
04
34
48
88
98
68
ENDCHAR

STARTCHAR ncommaaccent
ENCODING 241
SWIDTH 610 0
DWIDTH 6 0
BBX 5 7 1 -2
BITMAP
70
48
48
90
90
20
40
ENDCHAR

STARTCHAR omacron
ENCODING 242
SWIDTH 655 0
DWIDTH 7 0
BBX 6 7 1 0
BITMAP
3C
00
38
44
84
88
70
ENDCHAR

STARTCHAR kcommaaccent
ENCODING 243
SWIDTH 502 0
DWIDTH 5 0
BBX 5 10 1 -3
BITMAP
40
40
48
50
A0
90
88
00
40
80
ENDCHAR

STARTCHAR ocircumflex
ENCODING 244
SWIDTH 655 0
DWIDTH 7 0
BBX 6 8 1 0
BITMAP
18
24
00
38
44
84
88
70
ENDCHAR

STARTCHAR otilde
ENCODING 245
SWIDTH 655 0
DWIDTH 7 0
BBX 6 8 1 0
BITMAP
14
28
00
38
44
84
88
70
ENDCHAR

STARTCHAR odieresis
ENCODING 246
SWIDTH 655 0
DWIDTH 7 0
BBX 6 7 1 0
BITMAP
24
00
38
44
84
88
70
ENDCHAR

STARTCHAR divide
ENCODING 247
SWIDTH 606 0
DWIDTH 6 0
BBX 5 5 1 1
BITMAP
20
00
F8
00
20
ENDCHAR

STARTCHAR oslash
ENCODING 248
SWIDTH 653 0
DWIDTH 7 0
BBX 6 5 1 0
BITMAP
3C
4C
B4
C8
F0
ENDCHAR

STARTCHAR uogonek
ENCODING 249
SWIDTH 608 0
DWIDTH 6 0
BBX 5 7 1 -2
BITMAP
48
48
90
90
60
20
18
ENDCHAR

STARTCHAR uacute
ENCODING 250
SWIDTH 608 0
DWIDTH 6 0
BBX 5 8 1 0
BITMAP
08
10
00
48
48
90
90
60
ENDCHAR

STARTCHAR ucircumflex
ENCODING 251
SWIDTH 608 0
DWIDTH 6 0
BBX 6 8 1 0
BITMAP
18
24
00
48
48
90
90
60
ENDCHAR

STARTCHAR udieresis
ENCODING 252
SWIDTH 608 0
DWIDTH 6 0
BBX 5 7 1 0
BITMAP
28
00
48
48
90
90
60
ENDCHAR

STARTCHAR utilde
ENCODING 253
SWIDTH 608 0
DWIDTH 6 0
BBX 6 8 1 0
BITMAP
14
28
00
48
48
90
90
60
ENDCHAR

STARTCHAR umacron
ENCODING 254
SWIDTH 608 0
DWIDTH 6 0
BBX 5 7 1 0
BITMAP
38
00
48
48
90
90
60
ENDCHAR

STARTCHAR dotaccent
ENCODING 255
SWIDTH 222 0
DWIDTH 2 0
BBX 1 1 1 6
BITMAP
80
ENDCHAR
ENDFONT
